<?xml version="1.0" encoding="UTF-8"?>
<svg width="248px" height="72px" viewBox="0 0 248 72" version="1.1" xmlns="http://www.w3.org/2000/svg" xmlns:xlink="http://www.w3.org/1999/xlink">
    <!-- Generator: Sketch 41 (35326) - http://www.bohemiancoding.com/sketch -->
    <title>Логотип ЕМИАС</title>
    <desc>Created with Sketch.</desc>
    <defs></defs>
    <g id="Symbols" stroke="none" stroke-width="1" fill="none" fill-rule="evenodd">
        <g id="header" transform="translate(-64.000000, -40.000000)">
            <g id="Group-2" transform="translate(64.000000, 40.000000)">
                <g id="Логотип-ЕМИАС">
                    <path d="M190.764918,34 L186.000212,22 C185.749009,21.243029 184.997249,21 184.500212,21 L179.500212,21 C178.915146,21 178.329781,21.243029 178.000212,22 L164.500212,56 L158.000212,56 L173.863532,17.7648177 C174.276835,16.7591431 175.250641,16 176.500212,16 L188.000212,16 C189.163901,16 190.058568,16.7591431 190.474018,17.7648177 L197.066653,34 L208.000211,34 L206.000212,39 L199.097007,39 L206.000212,56 L199.500212,56 L192.750212,39 L176.000212,39 L178.000212,34 L190.764918,34 L190.764918,34 Z M0.911099268,20.7058185 C0.16506975,21.6289539 0,22.4860579 0,24 L0,48 C0,49.51177 0.16506975,50.367788 0.911099268,51.2930955 L3.40215185,54.4024327 C4.72914114,56 5.09226266,56 7.00021172,56 L36.0002118,56 L36.0002136,50 L7.00021176,50 C5.97252369,50 5.97252369,49.5 5.97252369,48.5 L5.97252369,39 L35.0002136,39 L35.0002136,33 L5.97252369,33 L5.97252369,23.5 C5.97252369,22.5 5.97252369,22 7.00021176,22 L36.0002136,22 L36.0002118,16 L7.00021172,16 C5.09226266,16 4.72914114,16 3.40215185,17.5964812 L0.911099268,20.7058185 L0.911099268,20.7058185 Z M88.8820839,16.9885729 L74.5,42 C74,43 74.0002118,43 73.5002118,43 C73.0002118,43 73,43 72.5,42 L58.3683132,16.9047272 C57.2076089,14.8538168 56.6235056,14.514021 54.3031686,15.621667 L49.5767548,17.8435786 C48.0002118,18.6103256 48.0002118,19.4642281 48.0002118,21.0848776 L48.0002118,56 L54.0002118,56 L54.0002118,23 C54.0002118,22.5 54.6679695,22.3408278 55.0002118,23 L70.0002118,49 L77.0002118,49 L92.0002118,23 C92.3303105,22.4020476 93.0002118,22.5 93.0002118,23 L93,56 L98.9993961,56 L98.9993961,20.9149797 C98.9993961,19.2943302 99.0819208,18.3543755 97.5868307,17.6714742 L92.9472285,15.621667 C90.7072727,14.6861253 90.2099811,14.6861253 88.8820839,16.9885729 Z M140.433745,16.2965229 L117.840216,49.7823844 C117.511954,50.2905905 117.000212,50.0912677 117.000212,49.5 L117.000212,16 L111.001087,16 L111.001087,50.7823844 C111.001087,52.4731259 110.920088,53.2348885 112.316263,53.9977441 L116.77017,56.3628149 C118.748263,57.4644745 119.654178,57.1267634 120.808421,55.4338361 L143.154689,22.1993453 C143.485081,21.694418 144.000212,22 144.000212,22.5 L144.000212,56 L150.000212,56 L150.000212,24.414705 L150.000212,21.1993453 C150.000212,19.5118826 150.000212,18.75012 148.597642,17.9872644 L144.06167,15.5347603 C142.331904,14.6910289 141.422792,14.7751835 140.433745,16.2965229 Z M248.000212,22 L248.000212,16 L221.02692,16 C219.168997,16 218.603269,16 217.312117,17.5954385 L214.888466,20.7059462 C214.160953,21.6280206 214.000212,22.5685582 214.000212,24 L214.000212,48 C214.000212,49.5128971 214.160953,50.3687212 214.888466,51.2929677 L217.312117,54.4034754 C218.603269,56 219.168997,56 221.02692,56 L248.000212,56 L248.000212,50 L221.02692,50 C220.135535,50 220.000212,49.7569916 220.000212,49 L220.000212,23 C220.000212,22.2451806 220.135535,22 221.02692,22 L248.000212,22 L248.000212,22 Z" id="emias" fill="#FFFFFF"></path>
                    <path d="M191,5 L221.000001,5 L222.999999,0 L193,0 L191,5 L191,5 Z M164,72 L194.000001,72 L195.999999,67 L166,67 L164,72 L164,72 Z" id="lines" fill="#FFFFFF"></path>
                </g>
            </g>
        </g>
    </g>
</svg>